<svg width="23" height="23" viewBox="0 0 23 23" fill="none" xmlns="http://www.w3.org/2000/svg">
<g clip-path="url(#clip0_2016_3413)">
<path d="M9.97465 10.7422L12.5453 13.3129L3.69565 22.1626C3.33109 22.5271 2.74656 22.5271 2.38204 22.1626L1.12498 20.9055C0.760423 20.541 0.760423 19.9564 1.12498 19.5919L9.97465 10.7422ZM15.9205 8.63034L14.6572 7.36699C14.2989 7.00872 13.7081 7.00872 13.3498 7.36699L10.4146 10.3022L12.9916 12.8666L15.9205 9.93765C16.2788 9.57942 16.2788 8.98861 15.9205 8.63034ZM10.0444 1.06184L9.75874 1.988C9.52261 2.75366 8.92321 3.35306 8.15755 3.58919L7.23139 3.8748C7.08318 3.92051 7.08318 4.13029 7.23139 4.176L8.15755 4.46161C8.92321 4.69774 9.52261 5.29714 9.75874 6.0628L10.0444 6.98896C10.0901 7.13717 10.2998 7.13717 10.3455 6.98896L10.6312 6.0628C10.8673 5.29714 11.4667 4.69774 12.2324 4.46161L13.1585 4.176C13.3067 4.13029 13.3067 3.92051 13.1585 3.8748L12.2324 3.58918C11.4667 3.35306 10.8673 2.75366 10.6312 1.988L10.3455 1.06183C10.2998 0.913633 10.0901 0.913633 10.0444 1.06184ZM16.9465 12.7449L16.772 13.3106C16.6278 13.7782 16.2618 14.1442 15.7942 14.2884L15.2285 14.4629C15.138 14.4908 15.138 14.6189 15.2285 14.6468L15.7942 14.8212C16.2618 14.9654 16.6278 15.3315 16.772 15.7991L16.9465 16.3647C16.9744 16.4552 17.1025 16.4552 17.1304 16.3647L17.3048 15.7991C17.449 15.3315 17.8151 14.9654 18.2827 14.8212L18.8483 14.6468C18.9388 14.6189 18.9388 14.4908 18.8483 14.4629L18.2827 14.2884C17.8151 14.1442 17.449 13.7782 17.3048 13.3106L17.1304 12.7449C17.1025 12.6544 16.9744 12.6544 16.9465 12.7449ZM20.405 7.18443L20.1884 7.88696C20.0093 8.46775 19.5546 8.92241 18.9738 9.10152L18.2713 9.31817C18.1589 9.35284 18.1589 9.51197 18.2713 9.54664L18.9738 9.76329C19.5546 9.9424 20.0093 10.3971 20.1884 10.9778L20.405 11.6804C20.4397 11.7928 20.5988 11.7928 20.6335 11.6804L20.8502 10.9778C21.0293 10.3971 21.4839 9.9424 22.0647 9.76329L22.7673 9.54664C22.8797 9.51197 22.8797 9.35284 22.7673 9.31817L22.0647 9.10152C21.4839 8.92241 21.0293 8.46775 20.8502 7.88696L20.6335 7.18443C20.5988 7.07201 20.4397 7.07201 20.405 7.18443Z" fill="white"/>
</g>
<defs>
<clipPath id="clip0_2016_3413">
<rect width="22" height="22" fill="white" transform="translate(0.851562 0.693359)"/>
</clipPath>
</defs>
</svg>
