<svg width="33" height="33" viewBox="0 0 33 33" fill="none" xmlns="http://www.w3.org/2000/svg">
<g clip-path="url(#clip0_2016_3310)">
<path d="M13.9258 9.95582L14.7288 12.1858C15.6208 14.6608 17.5698 16.6098 20.0448 17.5018L22.2748 18.3048C22.4758 18.3778 22.4758 18.6628 22.2748 18.7348L20.0448 19.5378C17.5698 20.4298 15.6208 22.3788 14.7288 24.8538L13.9258 27.0838C13.8528 27.2848 13.5678 27.2848 13.4958 27.0838L12.6928 24.8538C11.8008 22.3788 9.85184 20.4298 7.37684 19.5378L5.14684 18.7348C4.94584 18.6618 4.94584 18.3768 5.14684 18.3048L7.37684 17.5018C9.85184 16.6098 11.8008 14.6608 12.6928 12.1858L13.4958 9.95582C13.5678 9.75382 13.8528 9.75382 13.9258 9.95582Z" fill="#2EC770"/>
<path d="M23.9638 4.59678L24.3708 5.72578C24.8228 6.97878 25.8098 7.96578 27.0628 8.41778L28.1918 8.82478C28.2938 8.86178 28.2938 9.00578 28.1918 9.04278L27.0628 9.44978C25.8098 9.90178 24.8228 10.8888 24.3708 12.1418L23.9638 13.2708C23.9268 13.3728 23.7828 13.3728 23.7458 13.2708L23.3388 12.1418C22.8868 10.8888 21.8998 9.90178 20.6468 9.44978L19.5178 9.04278C19.4158 9.00578 19.4158 8.86178 19.5178 8.82478L20.6468 8.41778C21.8998 7.96578 22.8868 6.97878 23.3388 5.72578L23.7458 4.59678C23.7828 4.49378 23.9278 4.49378 23.9638 4.59678Z" fill="#2EC770"/>
<path d="M23.9638 23.7697L24.3708 24.8987C24.8228 26.1517 25.8098 27.1387 27.0628 27.5907L28.1918 27.9977C28.2938 28.0347 28.2938 28.1787 28.1918 28.2157L27.0628 28.6227C25.8098 29.0747 24.8228 30.0617 24.3708 31.3147L23.9638 32.4437C23.9268 32.5457 23.7828 32.5457 23.7458 32.4437L23.3388 31.3147C22.8868 30.0617 21.8998 29.0747 20.6468 28.6227L19.5178 28.2157C19.4158 28.1787 19.4158 28.0347 19.5178 27.9977L20.6468 27.5907C21.8998 27.1387 22.8868 26.1517 23.3388 24.8987L23.7458 23.7697C23.7828 23.6677 23.9278 23.6677 23.9638 23.7697Z" fill="#2EC770"/>
</g>
<defs>
<clipPath id="clip0_2016_3310">
<rect width="32" height="32" fill="white" transform="translate(0.632812 0.519531)"/>
</clipPath>
</defs>
</svg>
