<svg width="16" height="17" viewBox="0 0 16 17" fill="none" xmlns="http://www.w3.org/2000/svg">
<path d="M8 0.623047C3.58866 0.623047 0 4.2117 0 8.62305C0 13.0344 3.58866 16.623 8 16.623C12.4113 16.623 16 13.0344 16 8.62305C16 4.2117 12.4113 0.623047 8 0.623047ZM10.4713 9.09439L7.138 12.4277C7.008 12.5577 6.83734 12.623 6.66666 12.623C6.496 12.623 6.32531 12.5577 6.19531 12.4277C5.93466 12.167 5.93466 11.7457 6.19531 11.485L9.05734 8.62305L6.19534 5.76105C5.93469 5.50039 5.93469 5.07905 6.19534 4.81839C6.456 4.55773 6.87734 4.55773 7.138 4.81839L10.4713 8.15173C10.732 8.41239 10.732 8.8337 10.4713 9.09439Z" fill="white" fill-opacity="0.6"/>
</svg>
