<svg width="11" height="11" viewBox="0 0 11 11" fill="none" xmlns="http://www.w3.org/2000/svg">
<path d="M6.94102 1.67229C7.1616 1.24644 7.68564 1.08002 8.1115 1.3006C8.53804 1.52153 8.70418 2.04679 8.48229 2.47283L7.59042 4.18523C7.55473 4.25377 7.5105 4.31632 7.45937 4.37179C7.70309 4.73266 7.77864 5.19668 7.62419 5.63594C7.589 5.73603 7.55185 5.84037 7.51324 5.94704C7.4968 5.99245 7.44408 6.01287 7.40128 5.9905L4.52347 4.48662C4.47687 4.46227 4.46608 4.40033 4.50131 4.36129C4.57294 4.28195 4.64267 4.2023 4.70962 4.12395C5.0244 3.75556 5.49087 3.54717 5.96202 3.56262C5.96735 3.55164 5.97298 3.54071 5.97889 3.52982L6.94102 1.67229Z" fill="#FF0000"/>
<path d="M4.10771 4.85283C4.07746 4.83703 4.04055 4.84223 4.01555 4.86545C3.83841 5.03004 3.66168 5.17371 3.4968 5.276C2.94004 5.62139 2.47976 5.74587 2.19392 5.79005C2.02675 5.81589 1.89106 5.92351 1.82497 6.06309C1.75592 6.20887 1.76113 6.39992 1.8953 6.54776C2.04313 6.71066 2.26212 6.92626 2.57798 7.18565C2.59649 7.20086 2.62091 7.20683 2.6444 7.20212C2.86534 7.15771 3.09537 7.11579 3.29611 7.01085C3.35454 6.9803 3.44201 6.92589 3.55171 6.83182C3.66093 6.73813 3.82718 6.74819 3.92304 6.85426C4.01888 6.96034 4.00803 7.12227 3.8988 7.21595C3.7601 7.3349 3.6395 7.41223 3.54386 7.46223C3.46562 7.50312 3.38374 7.53709 3.30015 7.56607C3.23664 7.58807 3.22178 7.67366 3.27693 7.71209C3.43603 7.82296 3.60954 7.93873 3.79864 8.05899C3.89535 8.1205 3.99071 8.17832 4.08419 8.23263C4.11087 8.24813 4.14415 8.24671 4.16925 8.22876C4.30419 8.13223 4.42041 8.03536 4.51516 7.94647C4.72949 7.7454 4.91445 7.52385 5.06401 7.26904C5.13678 7.14504 5.29686 7.1014 5.42154 7.17158C5.54622 7.24177 5.58828 7.39918 5.5155 7.52319C5.34044 7.82144 5.12381 8.08257 4.87266 8.3182C4.8292 8.35897 4.78196 8.40112 4.7311 8.44407C4.6861 8.48207 4.69413 8.55442 4.7475 8.57934C5.06554 8.72785 5.33318 8.8281 5.51734 8.8903C5.78449 8.98053 6.06999 8.87734 6.22328 8.64777C6.41707 8.35752 6.75743 7.81016 7.04966 7.14414C7.12549 6.97132 7.20262 6.78291 7.27823 6.58982C7.29307 6.55193 7.27691 6.50899 7.24085 6.49015L4.10771 4.85283Z" fill="#FF0000"/>
<path d="M2.63015 4.14506C2.83794 4.14506 3.00639 3.97661 3.00639 3.76881C3.00639 3.56103 2.83794 3.39258 2.63015 3.39258C2.42236 3.39258 2.25391 3.56103 2.25391 3.76881C2.25391 3.97661 2.42236 4.14506 2.63015 4.14506Z" fill="#FF0000"/>
<path d="M1.60671 5.30131C1.8145 5.30131 1.98295 5.13286 1.98295 4.92506C1.98295 4.71728 1.8145 4.54883 1.60671 4.54883C1.39892 4.54883 1.23047 4.71728 1.23047 4.92506C1.23047 5.13286 1.39892 5.30131 1.60671 5.30131Z" fill="#FF0000"/>
</svg>
