<svg width="21" height="21" viewBox="0 0 21 21" fill="none" xmlns="http://www.w3.org/2000/svg">
<g clip-path="url(#clip0_2016_2646)">
<path d="M9.88781 1.28275C8.14189 1.28275 6.43519 1.80047 4.98351 2.77045C3.53184 3.74043 2.40039 5.11909 1.73226 6.73211C1.06413 8.34512 0.889314 10.12 1.22992 11.8324C1.57054 13.5448 2.41127 15.1177 3.64582 16.3522C4.88037 17.5868 6.45328 18.4275 8.16565 18.7681C9.87801 19.1087 11.6529 18.9339 13.2659 18.2658C14.879 17.5977 16.2576 16.4662 17.2276 15.0145C18.1976 13.5629 18.7153 11.8562 18.7153 10.1102C18.7125 7.7699 17.7816 5.52619 16.1267 3.87131C14.4719 2.21643 12.2282 1.28551 9.88781 1.28275ZM12.8627 13.0851C12.7122 13.2356 12.5081 13.3201 12.2953 13.3201C12.0825 13.3201 11.8784 13.2356 11.7279 13.0851L9.32044 10.6776C9.16993 10.5272 9.08535 10.3231 9.08531 10.1102V5.29525C9.08531 5.08241 9.16986 4.87829 9.32035 4.72779C9.47085 4.57729 9.67497 4.49275 9.88781 4.49275C10.1006 4.49275 10.3048 4.57729 10.4553 4.72779C10.6058 4.87829 10.6903 5.08241 10.6903 5.29525V9.77801L12.8627 11.9504C13.0131 12.1009 13.0976 12.305 13.0976 12.5177C13.0976 12.7305 13.0131 12.9346 12.8627 13.0851Z" fill="white"/>
</g>
<defs>
<clipPath id="clip0_2016_2646">
<rect width="19.9648" height="19.9648" fill="white" transform="translate(0.257812 0.480469)"/>
</clipPath>
</defs>
</svg>
