<svg width="20" height="20" viewBox="0 0 20 20" fill="none" xmlns="http://www.w3.org/2000/svg">
<path d="M15.1867 2.10547H8.1961C6.73331 2.10547 5.54297 3.29581 5.54297 4.7586C5.54297 4.99116 5.35444 5.17969 5.12188 5.17969C3.65909 5.17969 2.46875 6.37002 2.46875 7.83282V14.8234C2.46875 16.2862 3.65909 17.4766 5.12188 17.4766H12.1124C13.298 17.4766 14.2953 16.6918 14.6321 15.6159C14.71 15.3667 14.9255 15.1709 15.1866 15.1709C16.6495 15.1709 17.8398 13.9806 17.8398 12.5178V4.7586C17.8398 3.29581 16.6495 2.10547 15.1867 2.10547ZM16.3027 12.5178C16.3027 13.1332 15.8021 13.6338 15.1867 13.6338C14.9542 13.6338 14.7656 13.4453 14.7656 13.2127V7.83282C14.7656 6.37002 13.5753 5.17969 12.1125 5.17969H7.50117C7.26861 5.17969 7.08008 4.99116 7.08008 4.7586C7.08008 4.14321 7.58071 3.64258 8.1961 3.64258H15.1866C15.8021 3.64258 16.3027 4.14321 16.3027 4.7586V12.5178Z" fill="url(#paint0_linear_2016_3167)"/>
<defs>
<linearGradient id="paint0_linear_2016_3167" x1="4.63041" y1="6.41026" x2="20.5191" y2="11.4757" gradientUnits="userSpaceOnUse">
<stop stop-color="#FF9013"/>
<stop offset="1" stop-color="#FF4251"/>
</linearGradient>
</defs>
</svg>
