<svg width="26" height="26" viewBox="0 0 26 26" fill="none" xmlns="http://www.w3.org/2000/svg">
<g clip-path="url(#clip0_2016_2709)">
<path d="M17.0414 8.05817C16.0991 8.05817 15.3325 7.29152 15.3325 6.34918V0.733948H6.59222C5.11141 0.733948 3.90667 1.93868 3.90667 3.41949V23.0484C3.90667 24.5292 5.11141 25.7339 6.59222 25.7339H20.2641C21.7449 25.7339 22.9496 24.5292 22.9496 23.0484V8.05817H17.0414ZM7.91058 18.3121H11.4614C11.8658 18.3121 12.1938 18.64 12.1938 19.0445C12.1938 19.449 11.8658 19.7769 11.4614 19.7769H7.91058C7.50608 19.7769 7.17815 19.449 7.17815 19.0445C7.17815 18.64 7.50608 18.3121 7.91058 18.3121ZM7.17815 15.1382C7.17815 14.7338 7.50608 14.4058 7.91058 14.4058H18.6528C19.0573 14.4058 19.3852 14.7338 19.3852 15.1382C19.3852 15.5427 19.0573 15.8707 18.6528 15.8707H7.91058C7.50608 15.8707 7.17815 15.5427 7.17815 15.1382ZM18.6528 10.4996C19.0573 10.4996 19.3852 10.8275 19.3852 11.232C19.3852 11.6365 19.0573 11.9644 18.6528 11.9644H7.91058C7.50608 11.9644 7.17815 11.6365 7.17815 11.232C7.17815 10.8275 7.50608 10.4996 7.91058 10.4996H18.6528Z" fill="#747474"/>
<path d="M16.8004 6.34871C16.8004 6.48332 16.91 6.59285 17.0446 6.59285H22.6263C22.4923 6.34548 22.32 6.11829 22.1129 5.92234L17.4047 1.46814C17.222 1.29529 17.0185 1.1511 16.8005 1.03723V6.34871H16.8004Z" fill="#747474"/>
</g>
<defs>
<clipPath id="clip0_2016_2709">
<rect width="25" height="25" fill="white" transform="translate(0.925781 0.733948)"/>
</clipPath>
</defs>
</svg>
