<svg width="19" height="19" viewBox="0 0 19 19" fill="none" xmlns="http://www.w3.org/2000/svg">
<path d="M9.13281 0.660156C4.18281 0.660156 0.132812 4.71016 0.132812 9.66016C0.132812 14.6102 4.18281 18.6602 9.13281 18.6602C14.0828 18.6602 18.1328 14.6102 18.1328 9.66016C18.1328 4.71016 14.0828 0.660156 9.13281 0.660156ZM15.3428 6.06016H12.7328C12.4628 4.89016 12.0128 3.90016 11.4728 2.82016C13.0928 3.45016 14.5328 4.53016 15.3428 6.06016ZM9.13281 2.46016C9.85281 3.54016 10.4828 4.71016 10.8428 6.06016H7.42281C7.78281 4.80016 8.41281 3.54016 9.13281 2.46016ZM2.20281 11.4602C2.02281 10.9202 1.93281 10.2902 1.93281 9.66016C1.93281 9.03016 2.02281 8.40016 2.20281 7.86016H5.26281C5.17281 8.49016 5.17281 9.03016 5.17281 9.66016C5.17281 10.2902 5.26281 10.8302 5.26281 11.4602H2.20281ZM2.92281 13.2602H5.53281C5.80281 14.4302 6.25281 15.4202 6.79281 16.5002C5.17281 15.8702 3.73281 14.7902 2.92281 13.2602ZM5.53281 6.06016H2.92281C3.82281 4.53016 5.17281 3.45016 6.79281 2.82016C6.25281 3.90016 5.80281 4.89016 5.53281 6.06016ZM9.13281 16.8602C8.41281 15.7802 7.78281 14.6102 7.42281 13.2602H10.8428C10.4828 14.5202 9.85281 15.7802 9.13281 16.8602ZM11.2028 11.4602H7.06281C6.97281 10.8302 6.88281 10.2902 6.88281 9.66016C6.88281 9.03016 6.97281 8.49016 7.06281 7.86016H11.2928C11.3828 8.49016 11.4728 9.03016 11.4728 9.66016C11.4728 10.2902 11.2928 10.8302 11.2028 11.4602ZM11.4728 16.5002C12.0128 15.5102 12.4628 14.4302 12.7328 13.2602H15.3428C14.5328 14.7902 13.0928 15.8702 11.4728 16.5002ZM13.0928 11.4602C13.1828 10.8302 13.1828 10.2902 13.1828 9.66016C13.1828 9.03016 13.0928 8.49016 13.0928 7.86016H16.1528C16.3328 8.40016 16.4228 9.03016 16.4228 9.66016C16.4228 10.2902 16.3328 10.9202 16.1528 11.4602H13.0928Z" fill="#FF9518"/>
</svg>
