<svg width="29" height="29" viewBox="0 0 29 29" fill="none" xmlns="http://www.w3.org/2000/svg">
<path d="M26.5506 9.03845L17.609 1.88516C15.8616 0.492726 13.1314 0.479075 11.3977 1.87151L2.45605 9.03845C1.17283 10.0623 0.394703 12.11 0.667729 13.7209L2.3878 24.014C2.78368 26.321 4.92694 28.1367 7.26132 28.1367H21.7317C24.0388 28.1367 26.223 26.2801 26.6189 24.0003L28.339 13.7072C28.5847 12.11 27.8066 10.0623 26.5506 9.03845ZM15.5204 22.6761C15.5204 23.2358 15.0562 23.7 14.4965 23.7C13.9368 23.7 13.4727 23.2358 13.4727 22.6761V18.5807C13.4727 18.021 13.9368 17.5569 14.4965 17.5569C15.0562 17.5569 15.5204 18.021 15.5204 18.5807V22.6761Z" fill="white"/>
</svg>
