<svg width="21" height="20" viewBox="0 0 21 20" fill="none" xmlns="http://www.w3.org/2000/svg">
<path d="M10.6843 3.07534C10.3402 3.07534 10.0609 2.81339 10.0609 2.49063V0.964905C10.0609 0.642141 10.3402 0.380188 10.6843 0.380188C11.0285 0.380188 11.3077 0.642141 11.3077 0.964905V2.49063C11.3077 2.81339 11.0285 3.07534 10.6843 3.07534Z" fill="#0670CF"/>
<path d="M16.1441 5.19485C15.9845 5.19485 15.825 5.13793 15.7036 5.02333C15.46 4.7949 15.46 4.42458 15.7036 4.19615L16.854 3.11715C17.0976 2.88872 17.4924 2.88872 17.7359 3.11715C17.9795 3.34558 17.9795 3.7159 17.7359 3.94433L16.5855 5.02333C16.4633 5.13716 16.3037 5.19485 16.1441 5.19485Z" fill="#0670CF"/>
<path d="M20.0367 10.3196H18.41C18.0659 10.3196 17.7866 10.0577 17.7866 9.73492C17.7866 9.41216 18.0659 9.15021 18.41 9.15021H20.0367C20.3809 9.15021 20.6602 9.41216 20.6602 9.73492C20.6602 10.0577 20.3809 10.3196 20.0367 10.3196Z" fill="#0670CF"/>
<path d="M17.2946 16.5218C17.135 16.5218 16.9754 16.4649 16.854 16.3502L15.7036 15.2713C15.46 15.0428 15.46 14.6725 15.7036 14.4441C15.9471 14.2156 16.342 14.2156 16.5855 14.4441L17.7359 15.5231C17.9795 15.7515 17.9795 16.1218 17.7359 16.3502C17.6137 16.4649 17.4542 16.5218 17.2946 16.5218Z" fill="#0670CF"/>
<path d="M4.07042 16.5218C3.91082 16.5218 3.75122 16.4649 3.62987 16.3502C3.38632 16.1218 3.38632 15.7515 3.62987 15.5231L4.78028 14.4441C5.02383 14.2156 5.41866 14.2156 5.66221 14.4441C5.90576 14.6725 5.90576 15.0428 5.66221 15.2713L4.5118 16.3502C4.38961 16.4649 4.23001 16.5218 4.07042 16.5218Z" fill="#0670CF"/>
<path d="M2.96106 10.3196H1.33436C0.990229 10.3196 0.710938 10.0577 0.710938 9.73489C0.710938 9.41213 0.990229 9.15018 1.33436 9.15018H2.96106C3.30519 9.15018 3.58448 9.41213 3.58448 9.73489C3.58448 10.0577 3.30519 10.3196 2.96106 10.3196Z" fill="#0670CF"/>
<path d="M5.22083 5.19485C5.06123 5.19485 4.90164 5.13793 4.78028 5.02333L3.62987 3.94433C3.38632 3.7159 3.38632 3.34558 3.62987 3.11715C3.87341 2.88872 4.26825 2.88872 4.5118 3.11715L5.66221 4.19615C5.90576 4.42458 5.90576 4.7949 5.66221 5.02333C5.53919 5.13716 5.38042 5.19485 5.22083 5.19485Z" fill="#0670CF"/>
<path d="M13.1783 16.751V17.7255C13.1783 18.474 12.5216 19.0899 11.7236 19.0899H9.64556C8.94733 19.0899 8.19092 18.5909 8.19092 17.4994V16.751H13.1783Z" fill="#0670CF"/>
<path d="M14.3528 5.49273C12.9896 4.45583 11.1941 4.05043 9.44023 4.40126C7.23749 4.83005 5.45036 6.51404 4.99318 8.58003C4.5277 10.7006 5.37555 12.8056 7.18762 14.092C7.67804 14.435 8.01884 14.9651 8.13521 15.581V15.5888C8.15184 15.581 8.17677 15.581 8.1934 15.581H13.1807C13.1974 15.581 13.2057 15.581 13.2223 15.5888V15.581C13.3387 14.9885 13.7127 14.4428 14.2863 14.0218C15.691 12.9771 16.5056 11.4179 16.5056 9.73388C16.5056 8.08108 15.7243 6.53742 14.3528 5.49273ZM13.8042 10.1237C13.4634 10.1237 13.1807 9.85861 13.1807 9.53897C13.1807 8.35394 12.1583 7.39501 10.8949 7.39501C10.5541 7.39501 10.2715 7.12994 10.2715 6.81029C10.2715 6.49065 10.5541 6.22557 10.8949 6.22557C12.8399 6.22557 14.4276 7.71465 14.4276 9.53897C14.4276 9.85861 14.145 10.1237 13.8042 10.1237Z" fill="#0670CF"/>
<path d="M8.13263 15.5818H8.18897C8.17287 15.5818 8.14873 15.5818 8.13263 15.5894V15.5818Z" fill="#0670CF"/>
<path d="M13.2209 15.5818V15.5894C13.2047 15.5818 13.1966 15.5818 13.1804 15.5818H13.2209Z" fill="#0670CF"/>
</svg>
