<svg width="13" height="13" viewBox="0 0 13 13" fill="none" xmlns="http://www.w3.org/2000/svg">
<g clip-path="url(#clip0_2016_3237)">
<path d="M5.14269 9.7716L3.72867 11.1856C3.14245 11.7718 2.19311 11.7718 1.60738 11.1857C1.02153 10.5999 1.02153 9.65045 1.60726 9.06472L4.43579 6.23619C5.02152 5.65044 5.97095 5.65044 6.55668 6.23619C6.75194 6.43145 7.06854 6.43145 7.2638 6.23619C7.45905 6.04093 7.45905 5.72434 7.2638 5.52908C6.28752 4.55281 4.70494 4.55281 3.72867 5.52908L0.900172 8.35758C-0.0760991 9.33385 -0.0760991 10.9164 0.900172 11.8927C1.87633 12.8695 3.45902 12.8695 4.43581 11.8927L5.84983 10.4787C6.04509 10.2834 6.04509 9.96683 5.84983 9.77157C5.65457 9.57631 5.33795 9.57634 5.14269 9.7716Z" fill="#FE5346"/>
<path d="M11.4371 1.3572C10.4608 0.380932 8.87775 0.380932 7.90148 1.3572L6.20497 3.05371C6.00971 3.24897 6.00971 3.56557 6.20497 3.76083C6.40023 3.95609 6.71682 3.95609 6.91208 3.76083L8.60859 2.06432C9.19432 1.47856 10.1442 1.47856 10.73 2.06432C11.3157 2.65005 11.3157 3.59948 10.73 4.18521L7.61898 7.29625C7.03323 7.88201 6.08382 7.88201 5.49809 7.29625C5.30283 7.10099 4.98623 7.10099 4.79098 7.29625C4.59572 7.49151 4.59572 7.80811 4.79098 8.00337C5.76725 8.97964 7.34983 8.97964 8.3261 8.00337L11.4371 4.89235C12.4134 3.91608 12.4134 2.33347 11.4371 1.3572Z" fill="#FE5346"/>
</g>
<defs>
<clipPath id="clip0_2016_3237">
<rect width="12" height="12" fill="white" transform="translate(0.167969 0.625)"/>
</clipPath>
</defs>
</svg>
