<svg width="26" height="26" viewBox="0 0 26 26" fill="none" xmlns="http://www.w3.org/2000/svg">
<g clip-path="url(#clip0_2016_2712)">
<path d="M13.4258 0.734924C6.52294 0.734924 0.925781 6.33099 0.925781 13.2344C0.925781 20.1378 6.5224 25.7338 13.4258 25.7338C20.3297 25.7338 25.9258 20.1378 25.9258 13.2344C25.9258 6.33099 20.3297 0.734924 13.4258 0.734924ZM13.4258 4.47241C15.7099 4.47241 17.5608 6.32385 17.5608 8.60686C17.5608 10.8904 15.7099 12.7413 13.4258 12.7413C11.1428 12.7413 9.29188 10.8904 9.29188 8.60686C9.29188 6.32385 11.1428 4.47241 13.4258 4.47241ZM13.423 22.4658C11.145 22.4658 9.05852 21.6362 7.44921 20.2629C7.05718 19.9286 6.83097 19.4383 6.83097 18.9238C6.83097 16.6084 8.70493 14.7553 11.0209 14.7553H15.8318C18.1483 14.7553 20.0151 16.6084 20.0151 18.9238C20.0151 19.4388 19.79 19.928 19.3974 20.2624C17.7886 21.6362 15.7017 22.4658 13.423 22.4658Z" fill="#747474"/>
</g>
<defs>
<clipPath id="clip0_2016_2712">
<rect width="25" height="25" fill="white" transform="translate(0.925781 0.734375)"/>
</clipPath>
</defs>
</svg>
