<svg width="21" height="21" viewBox="0 0 21 21" fill="none" xmlns="http://www.w3.org/2000/svg">
<path d="M2.97872 11.7883L4.40234 11.9148C4.55475 12.5115 4.79148 13.0822 5.10929 13.6205L4.19155 14.7167C4.08453 14.8464 4.09426 15.0344 4.211 15.1544L5.90381 16.8472C6.02378 16.964 6.21187 16.9737 6.34159 16.8667L7.43768 15.949C7.97276 16.2635 8.54675 16.5035 9.14345 16.6559L9.26992 18.0795C9.28615 18.2449 9.42558 18.3746 9.5942 18.3746H11.9875C12.1529 18.3746 12.2955 18.2449 12.3085 18.0795L12.435 16.6559C13.0349 16.5035 13.6057 16.2635 14.1407 15.949L15.2401 16.8667C15.3698 16.9737 15.5579 16.964 15.6779 16.8472L17.3674 15.1544C17.4874 15.0344 17.4972 14.8464 17.3869 14.7167L16.4691 13.6205C16.787 13.0822 17.0269 12.5115 17.1793 11.9148L18.603 11.7883C18.7684 11.7721 18.8981 11.6327 18.8981 11.464V9.07076C18.8981 8.90214 18.7684 8.7627 18.603 8.74648L17.1793 8.62002C17.0269 8.02332 16.787 7.45256 16.4691 6.91425L17.3869 5.81816C17.4972 5.68842 17.4874 5.50035 17.3674 5.38037L15.6779 3.68756C15.5579 3.57082 15.3666 3.56108 15.2401 3.66811L14.1407 4.58586C13.6057 4.27128 13.0349 4.03131 12.435 3.87891L12.3085 2.45526C12.2955 2.28988 12.1529 2.16016 11.9875 2.16016H9.5942C9.42558 2.16016 9.28615 2.28988 9.26992 2.45526L9.14345 3.87891C8.54675 4.03131 7.97276 4.27128 7.43768 4.58586L6.34159 3.66811C6.21187 3.56108 6.02378 3.57082 5.90381 3.68756L4.211 5.38037C4.09426 5.50035 4.08453 5.68842 4.19155 5.81816L5.10929 6.91425C4.79148 7.45256 4.55475 8.02332 4.40234 8.62002L2.97872 8.74648C2.81008 8.7627 2.68359 8.90214 2.68359 9.07076V11.464C2.68359 11.6327 2.81008 11.7721 2.97872 11.7883ZM11.1151 6.27863C13.0641 6.43431 14.6207 7.99414 14.7796 9.9431H11.1151V6.27863ZM14.7796 10.5917C14.6142 12.6477 12.889 14.2724 10.7908 14.2724C9.80176 14.2724 8.89699 13.9124 8.19977 13.3157L10.9238 10.5917H14.7796ZM10.4666 6.27863V10.1344L7.73928 12.8585C7.14581 12.158 6.78587 11.2565 6.78587 10.2674C6.78587 8.16925 8.40731 6.44403 10.4666 6.27863Z" fill="url(#paint0_linear_2016_3171)"/>
<defs>
<linearGradient id="paint0_linear_2016_3171" x1="10.7908" y1="2.16016" x2="10.7908" y2="18.3746" gradientUnits="userSpaceOnUse">
<stop stop-color="#FF841D"/>
<stop offset="1" stop-color="#FE5246"/>
</linearGradient>
</defs>
</svg>
