<svg width="18" height="17" viewBox="0 0 18 17" fill="none" xmlns="http://www.w3.org/2000/svg">
<g clip-path="url(#clip0_2016_3366)">
<g clip-path="url(#clip1_2016_3366)">
<path d="M6.01977 13.0523L6.01977 13.5129L16.6448 13.5129C16.8992 13.5129 17.1055 13.7192 17.1055 13.9735C17.1055 14.2279 16.8992 14.4342 16.6448 14.4342L6.01977 14.4342L6.01977 14.9255C6.01977 15.6875 5.39986 16.3074 4.63789 16.3074C3.87593 16.3074 3.25602 15.6875 3.25602 14.9255L3.25602 14.4342L1.84344 14.4342C1.58905 14.4342 1.38281 14.2279 1.38281 13.9735C1.38281 13.7192 1.58905 13.5129 1.84344 13.5129L3.25602 13.5129L3.25602 13.0523C3.25602 12.2903 3.87593 11.6704 4.63789 11.6704C5.39986 11.6704 6.01977 12.2903 6.01977 13.0523ZM4.17727 13.0523L4.17727 14.9255C4.17727 15.1795 4.38391 15.3861 4.63789 15.3861C4.89188 15.3861 5.09852 15.1795 5.09852 14.9255L5.09852 13.0523C5.09852 12.7983 4.89188 12.5917 4.63789 12.5917C4.38391 12.5917 4.17727 12.7983 4.17727 13.0523Z" fill="#00BB64"/>
<path d="M9.70477 9.36755L9.70477 9.82817L16.6448 9.82817C16.8992 9.82817 17.1055 10.0344 17.1055 10.2888C17.1055 10.5432 16.8992 10.7494 16.6448 10.7494L9.70477 10.7494L9.70477 11.21C9.70477 11.972 9.08486 12.5919 8.32289 12.5919C7.56093 12.5919 6.94102 11.972 6.94102 11.21L6.94102 10.7494L1.84344 10.7494C1.58905 10.7494 1.38281 10.5432 1.38281 10.2888C1.38281 10.0344 1.58905 9.82817 1.84344 9.82817L6.94102 9.82817L6.94102 9.36755C6.94102 8.60558 7.56093 7.98567 8.32289 7.98567C9.08486 7.98567 9.70477 8.60558 9.70477 9.36755ZM7.86227 9.36755L7.86227 11.21C7.86227 11.464 8.0689 11.6707 8.32289 11.6707C8.57688 11.6707 8.78352 11.464 8.78352 11.21L8.78352 9.36755C8.78352 9.11356 8.57688 8.90692 8.32289 8.90692C8.0689 8.90692 7.86227 9.11356 7.86227 9.36755Z" fill="#00BB64"/>
<path d="M12.9291 4.3C13.6911 4.3 14.311 4.91991 14.311 5.68188L14.311 6.1425L16.6448 6.1425C16.8992 6.1425 17.1055 6.34874 17.1055 6.60313C17.1055 6.85751 16.8992 7.06375 16.6448 7.06375L14.311 7.06375L14.311 7.52438C14.311 8.28634 13.6911 8.90625 12.9291 8.90625C12.1672 8.90625 11.5473 8.28634 11.5473 7.52438L11.5473 7.06375L1.84344 7.06375C1.58905 7.06375 1.38281 6.85752 1.38281 6.60313C1.38281 6.34874 1.58905 6.1425 1.84344 6.1425L11.5473 6.1425L11.5473 5.68188C11.5473 4.91991 12.1672 4.3 12.9291 4.3ZM12.9291 7.985C13.1831 7.985 13.3898 7.77836 13.3898 7.52438L13.3898 5.68188C13.3898 5.42789 13.1831 5.22125 12.9291 5.22125C12.6751 5.22125 12.4685 5.42789 12.4685 5.68188L12.4685 7.52438C12.4685 7.77836 12.6751 7.985 12.9291 7.985Z" fill="#00BB64"/>
<path d="M6.01977 1.96648L6.01977 2.45781L16.6448 2.45781C16.8992 2.45781 17.1055 2.66405 17.1055 2.91843C17.1055 3.17282 16.8992 3.37906 16.6448 3.37906L6.01977 3.37906L6.01977 3.83968C6.01977 4.60165 5.39986 5.22156 4.63789 5.22156C3.87593 5.22156 3.25602 4.60165 3.25602 3.83968L3.25602 3.37906L1.84344 3.37906C1.58905 3.37906 1.38281 3.17282 1.38281 2.91844C1.38281 2.66405 1.58905 2.45781 1.84344 2.45781L3.25602 2.45781L3.25602 1.96648C3.25602 1.20451 3.87593 0.584603 4.63789 0.584603C5.39986 0.584603 6.01977 1.20451 6.01977 1.96648ZM4.17727 1.96648L4.17727 3.83968C4.17727 4.09367 4.38391 4.30031 4.63789 4.30031C4.89188 4.30031 5.09852 4.09367 5.09852 3.83968L5.09852 1.96648C5.09852 1.71249 4.89188 1.50585 4.63789 1.50585C4.38391 1.50585 4.17727 1.71249 4.17727 1.96648Z" fill="#00BB64"/>
</g>
</g>
<defs>
<clipPath id="clip0_2016_3366">
<rect width="16.4727" height="16.4727" fill="white" transform="translate(0.632812 0.382812)"/>
</clipPath>
<clipPath id="clip1_2016_3366">
<rect width="15.7227" height="15.7227" fill="white" transform="matrix(-4.37114e-08 -1 -1 4.37114e-08 17.1055 16.3047)"/>
</clipPath>
</defs>
</svg>
