<svg width="24" height="25" viewBox="0 0 24 25" fill="none" xmlns="http://www.w3.org/2000/svg">
<path d="M6.75 14.1328H2.25C1.83579 14.1328 1.5 14.4686 1.5 14.8828V22.3828C1.5 22.797 1.83579 23.1328 2.25 23.1328H6.75C7.16421 23.1328 7.5 22.797 7.5 22.3828V14.8828C7.5 14.4686 7.16421 14.1328 6.75 14.1328Z" fill="#FF9500"/>
<path d="M21.75 8.13281H17.25C16.8358 8.13281 16.5 8.4686 16.5 8.88281V22.3828C16.5 22.797 16.8358 23.1328 17.25 23.1328H21.75C22.1642 23.1328 22.5 22.797 22.5 22.3828V8.88281C22.5 8.4686 22.1642 8.13281 21.75 8.13281Z" fill="#FF9500"/>
<path d="M14.25 2.13281H9.75C9.33579 2.13281 9 2.4686 9 2.88281V22.3828C9 22.797 9.33579 23.1328 9.75 23.1328H14.25C14.6642 23.1328 15 22.797 15 22.3828V2.88281C15 2.4686 14.6642 2.13281 14.25 2.13281Z" fill="#FF9500"/>
</svg>
