<svg width="21" height="21" viewBox="0 0 21 21" fill="none" xmlns="http://www.w3.org/2000/svg">
<g clip-path="url(#clip0_2016_2656)">
<g clip-path="url(#clip1_2016_2656)">
<path d="M10.3956 6.39579C11.1712 6.39579 11.8 5.76703 11.8 4.99141C11.8 4.2158 11.1712 3.58704 10.3956 3.58704C9.62 3.58704 8.99124 4.2158 8.99124 4.99141C8.99124 5.76703 9.62 6.39579 10.3956 6.39579Z" fill="white"/>
<path d="M17.6181 8.80329C18.3937 8.80329 19.0225 8.17453 19.0225 7.39891C19.0225 6.6233 18.3937 5.99454 17.6181 5.99454C16.8425 5.99454 16.2137 6.6233 16.2137 7.39891C16.2137 8.17453 16.8425 8.80329 17.6181 8.80329Z" fill="white"/>
<path d="M3.17311 8.80329C3.94873 8.80329 4.57749 8.17453 4.57749 7.39891C4.57749 6.6233 3.94873 5.99454 3.17311 5.99454C2.3975 5.99454 1.76874 6.6233 1.76874 7.39891C1.76874 8.17453 2.3975 8.80329 3.17311 8.80329Z" fill="white"/>
<path fill-rule="evenodd" clip-rule="evenodd" d="M17.8067 8.31937C17.858 8.06418 17.7393 7.80577 17.5138 7.67737C17.2875 7.54978 17.0042 7.58107 16.8116 7.75602C16.8116 7.75602 15.9722 8.5192 15.0252 9.38028C14.5822 9.78313 13.9683 9.93962 13.3865 9.79918C12.8047 9.65875 12.3304 9.23904 12.1202 8.67809L10.959 5.58285C10.8707 5.34772 10.6468 5.19203 10.3956 5.19203C10.1444 5.19203 9.92052 5.34772 9.83225 5.58285L8.67103 8.67809C8.46077 9.23904 7.9865 9.65875 7.40468 9.79918C6.82287 9.93962 6.20896 9.78313 5.76598 9.38028C4.81903 8.5192 3.97961 7.75602 3.97961 7.75602C3.78701 7.58107 3.50373 7.54978 3.27743 7.67737C3.05192 7.80577 2.93315 8.06418 2.98451 8.31937C2.98451 8.31937 3.8777 12.7853 4.33111 15.054C4.53735 16.086 5.44337 16.8283 6.49545 16.8283H14.2958C15.3478 16.8283 16.2538 16.086 16.4601 15.054C16.9135 12.7853 17.8067 8.31937 17.8067 8.31937Z" fill="white"/>
<path fill-rule="evenodd" clip-rule="evenodd" d="M15.2106 18.032H5.5806C5.24837 18.032 4.97873 18.3017 4.97873 18.6339C4.97873 18.9662 5.24837 19.2358 5.5806 19.2358H15.2106C15.5428 19.2358 15.8125 18.9662 15.8125 18.6339C15.8125 18.3017 15.5428 18.032 15.2106 18.032Z" fill="white"/>
</g>
</g>
<defs>
<clipPath id="clip0_2016_2656">
<rect width="19.9648" height="19.9648" fill="white" transform="translate(0.765625 0.480469)"/>
</clipPath>
<clipPath id="clip1_2016_2656">
<rect width="19.26" height="19.26" fill="white" transform="translate(0.765625 0.480469)"/>
</clipPath>
</defs>
</svg>
